<svg width="14" height="14" viewBox="0 0 14 14" fill="none" xmlns="http://www.w3.org/2000/svg">
<path d="M1.20627 0.625373L1.20667 0.625358C1.34939 0.619992 1.48648 0.675038 1.58576 0.774935L1.58545 0.774626L1.39646 0.963104M1.20627 0.625373L1.58636 0.775542L1.39672 0.963367M1.20627 0.625373C1.07747 0.630353 0.955497 0.684103 0.864904 0.775634L1.13143 1.03943L1.20627 0.625373ZM1.39646 0.963104L1.39145 0.968102L1.31992 1.03943L1.34553 1.01407L1.34553 1.01407L1.39672 0.963367M1.39646 0.963104L1.39672 0.963367M1.39646 0.963104C1.39655 0.963192 1.39663 0.96328 1.39672 0.963367M1.39672 0.963367C1.3968 0.963446 1.39688 0.963523 1.39695 0.963601M1.39672 0.963367L1.39672 0.963367M1.39695 0.963601C1.44209 1.00896 1.46729 1.07018 1.46729 1.13392C1.46729 1.15028 1.46562 1.16648 1.46239 1.18229L6.81162 6.54607L6.88795 6.46954M1.39695 0.963601L6.88795 6.46954M1.39695 0.963601L1.39696 0.963601L1.39672 0.963367M6.88795 6.46954L7.07643 6.65853L7.26493 6.46956M6.88795 6.46954L7.07645 6.28056L7.26493 6.46956M7.26493 6.46956L7.34125 6.54609L12.6914 1.18227C12.6882 1.16647 12.6865 1.15028 12.6865 1.13392C12.6865 1.07018 12.7117 1.00895 12.7569 0.96358L7.26493 6.46956ZM12.7572 0.963238L12.5679 0.775092C12.5679 0.775034 12.568 0.774975 12.5681 0.774916L12.5684 0.774604L12.7573 0.963097M12.7572 0.963238L12.7984 1.0042L12.7985 1.00425L12.8339 1.03943L12.7636 0.96938L12.7635 0.96925L12.7573 0.963097M12.7572 0.963238C12.7573 0.963191 12.7573 0.963144 12.7573 0.963097M12.7572 0.963238L12.7573 0.963097M12.7573 0.963097C12.7574 0.963093 12.7574 0.963089 12.7574 0.963086L12.7573 0.963097ZM7.60609 6.81159L7.5304 6.73572L7.34144 6.92423L7.34125 6.92404L12.8806 1.37049L7.60609 6.81159ZM7.60609 6.81159L7.41759 7.00056L7.6061 7.18952M7.60609 6.81159L7.7946 7.00055L7.6061 7.18952M7.6061 7.18952L7.53042 7.2654L7.34145 7.0769L7.34126 7.07709L12.8806 12.6297C12.8961 12.6266 12.912 12.625 12.9281 12.625C12.9923 12.625 13.0535 12.6504 13.0988 12.6953M7.6061 7.18952L13.0988 12.6953M13.0988 12.6953L13.0224 12.7718L13.0989 12.6954M13.0988 12.6953L13.2874 12.5065L13.2879 12.5069L13.0989 12.6954M13.0988 12.6953L13.0989 12.6954M13.0988 12.6953C13.0988 12.6954 13.0988 12.6954 13.0989 12.6954M6.81138 7.07691L6.81158 7.07711L6.8116 7.0771L6.8114 7.0769L6.81138 7.07691ZM6.81138 7.07691L6.62241 7.26537L6.54678 7.18954L6.73524 7.00059L6.81138 7.07691ZM1.4624 12.8179C1.46563 12.8337 1.46729 12.8499 1.46729 12.8663C1.46729 12.93 1.44209 12.9912 1.39693 13.0366L6.88794 7.53157M1.4624 12.8179L6.88794 7.53157M1.4624 12.8179L6.8116 7.45505M1.4624 12.8179L6.8116 7.45505M6.88794 7.53157L6.8116 7.45505M6.88794 7.53157L7.0764 7.34262L7.00008 7.26609L6.8116 7.45505M13.0988 1.30488L13.0989 1.30474C13.0989 1.30479 13.0988 1.30483 13.0988 1.30488ZM12.5684 13.2256L12.7574 13.0371L12.8339 12.9608L12.7967 12.9977L12.5684 13.2256ZM7.07643 7.3426L7.26494 7.53155L7.34127 7.45503L7.15277 7.26607L7.07643 7.3426ZM6.8114 6.92424L6.62243 6.73574L6.54679 6.81157L6.73527 7.00056L6.81092 6.92472L6.8114 6.92424ZM1.58543 13.2256C1.58559 13.2254 1.58575 13.2253 1.58591 13.2251L1.39659 13.037L1.35693 12.9975L1.35687 12.9975L1.31992 12.9608L1.39333 13.034L1.39347 13.0341L1.39645 13.0371L1.58543 13.2256ZM1.05504 12.6953L1.05504 12.6953L1.0549 12.6954L1.0549 12.6954C1.05495 12.6954 1.055 12.6954 1.05504 12.6953ZM0.866411 1.49372L6.3583 7.00055L0.865905 1.49321L0.866081 1.49339C0.866191 1.4935 0.866301 1.49361 0.866411 1.49372Z" fill="black" stroke="black" stroke-width="0.75"/>
</svg>
